<svg version="1.1" id="Layer_1" xmlns="http://www.w3.org/2000/svg" xmlns:xlink="http://www.w3.org/1999/xlink" x="0px" y="0px"
	 width="100%" viewBox="0 0 1024 1024" enable-background="new 0 0 1024 1024" xml:space="preserve">
<path fill="#000000" opacity="1.000000" stroke="none" 
	d="
M192.626846,701.632385 
	C233.331680,653.986084 273.825836,606.626343 314.265015,559.219788 
	C369.841370,494.067993 425.351074,428.859406 480.939209,363.717682 
	C508.842621,331.018707 536.859009,298.416168 564.810852,265.758484 
	C565.981873,264.390381 567.460144,263.195892 567.872437,260.935333 
	C565.440735,259.602478 562.756592,260.201660 560.220215,260.200775 
	C454.563751,260.163208 348.907318,260.167847 243.250854,260.141327 
	C240.597809,260.140686 237.882523,260.159332 235.303055,259.639313 
	C226.294022,257.823090 221.002197,250.801819 221.774124,242.045151 
	C222.534912,233.414520 229.126465,227.677643 238.533539,227.674667 
	C312.192963,227.651276 385.852356,227.660141 459.511780,227.660721 
	C510.340149,227.661133 561.168579,227.699493 611.996826,227.615280 
	C617.505676,227.606155 622.419983,228.251953 624.936523,233.917786 
	C627.443970,239.563141 625.322144,244.107483 621.558777,248.490234 
	C585.962463,289.945007 550.385925,331.417114 514.913818,372.978180 
	C469.495026,426.193359 424.219757,479.531036 378.803284,532.748230 
	C344.524902,572.914246 310.112640,612.966003 275.778717,653.084656 
	C260.398438,671.056335 245.061325,689.064819 229.715805,707.066101 
	C228.759857,708.187561 227.901871,709.392456 226.835037,710.769287 
	C229.033356,712.263000 231.243790,711.650208 233.283691,711.651367 
	C305.276733,711.691711 377.269806,711.688843 449.262878,711.692810 
	C450.929352,711.692932 452.598846,711.637268 454.261749,711.716492 
	C462.283478,712.098633 465.743073,718.297302 461.676086,725.281555 
	C458.660248,730.460815 455.223297,735.393921 452.172272,740.553955 
	C450.335602,743.660156 447.494049,743.251160 444.698395,743.251526 
	C404.535614,743.256714 364.372833,743.246460 324.210052,743.249207 
	C279.714355,743.252197 235.218658,743.286865 190.723007,743.257202 
	C179.963486,743.250000 173.814560,736.577576 174.686310,726.182617 
	C174.933960,723.229675 176.111313,720.722778 178.001633,718.525085 
	C182.781387,712.968201 187.592880,707.438599 192.626846,701.632385 
z"/>
<path fill="#000000" opacity="1.000000" stroke="none" 
	d="
M838.627808,495.573914 
	C798.327759,560.597168 758.212402,625.306091 718.136047,690.039246 
	C708.840515,705.053772 699.621155,720.116211 690.487549,735.229675 
	C687.586731,740.029846 683.562805,742.796509 678.026733,743.263733 
	C672.454895,743.734009 667.755432,741.950745 664.736206,737.066223 
	C661.820618,732.349304 662.297485,727.485107 665.076172,722.863220 
	C672.801758,710.013428 680.521423,697.158875 688.387512,684.394958 
	C706.654358,654.754028 724.989685,625.155273 743.328003,595.558472 
	C761.842590,565.677002 780.395386,535.819214 798.926147,505.947815 
	C799.865784,504.433044 801.138245,503.041016 801.082092,501.065216 
	C799.004089,499.573761 796.769043,500.136688 794.688049,500.133118 
	C749.024414,500.054810 703.360596,500.048767 657.697083,499.940125 
	C654.570312,499.932678 652.534973,500.726898 650.775452,503.574921 
	C618.990234,555.023132 587.232605,606.489380 555.178772,657.770325 
	C517.297485,718.374146 479.110138,778.786682 441.149963,839.341370 
	C437.694855,844.853027 433.133820,847.496338 426.709015,847.344482 
	C416.440857,847.101929 410.338562,837.490112 415.141693,828.370728 
	C418.705200,821.604980 423.004669,815.221497 427.068939,808.725708 
	C459.235748,757.315063 491.485596,705.956177 523.588196,654.505493 
	C550.486572,611.395630 577.216614,568.180786 604.032593,525.019531 
	C607.988953,518.651672 612.034302,512.339050 615.979553,505.964417 
	C616.912781,504.456543 618.282776,503.062592 617.801147,499.985107 
	C554.633057,499.985107 491.339142,499.985107 428.333893,499.985107 
	C427.548828,497.338257 428.841827,496.533203 429.650299,495.578766 
	C436.111786,487.950806 442.730499,480.452087 449.038666,472.700226 
	C451.423981,469.768951 454.316101,469.701569 457.530792,469.703094 
	C506.361176,469.725861 555.191589,469.722656 604.021973,469.721863 
	C613.854675,469.721710 623.688599,469.618927 633.519409,469.750519 
	C636.524292,469.790771 638.342529,468.802734 639.949402,466.168854 
	C678.385437,403.164642 716.921814,340.221771 755.409546,277.249115 
	C764.096680,263.035400 772.664490,248.748901 781.298157,234.502487 
	C784.905396,228.550186 790.532471,226.475464 797.081604,226.970856 
	C802.450745,227.376984 806.404419,230.185410 808.429443,235.432114 
	C810.481445,240.748672 808.369324,245.169754 805.703552,249.539963 
	C793.904846,268.882568 782.140503,288.246185 770.322815,307.577179 
	C739.474182,358.038544 708.597595,408.482727 677.759460,458.950439 
	C675.961548,461.892670 673.861755,464.713226 672.876892,468.045654 
	C675.099060,470.469604 677.761475,469.651794 680.124329,469.654358 
	C730.954529,469.709656 781.784851,469.716095 832.615112,469.673431 
	C837.406921,469.669403 842.120544,469.603455 844.867554,474.484528 
	C847.724121,479.560394 846.020691,484.085938 843.008423,488.458832 
	C841.499451,490.649414 840.213562,492.993652 838.627808,495.573914 
z"/>
</svg>